<?xml version="1.0" encoding="UTF-8" standalone="no"?>
<svg
   xmlns:dc="http://purl.org/dc/elements/1.1/"
   xmlns:cc="http://creativecommons.org/ns#"
   xmlns:rdf="http://www.w3.org/1999/02/22-rdf-syntax-ns#"
   xmlns:svg="http://www.w3.org/2000/svg"
   xmlns="http://www.w3.org/2000/svg"
   viewBox="0 0 341.64746 161.52173"
   height="161.52173"
   width="341.64746"
   xml:space="preserve"
   id="svg2"
   version="1.1"><metadata
     id="metadata8"><rdf:RDF><cc:Work
         rdf:about=""><dc:format>image/svg+xml</dc:format><dc:type
           rdf:resource="http://purl.org/dc/dcmitype/StillImage" /></cc:Work></rdf:RDF></metadata><defs
     id="defs6"><clipPath
       id="clipPath14"
       clipPathUnits="userSpaceOnUse"><path
         id="path12"
         d="M 0,0 H 595.276 V 841.89 H 0 Z" /></clipPath><clipPath
       id="clipPath24"
       clipPathUnits="userSpaceOnUse"><path
         id="path22"
         d="M 0,0 H 595 V 841 H 0 Z" /></clipPath></defs><g
     clip-path="url(#clipPath14)"
     transform="matrix(1.3333333,0,0,-1.3333333,-227.7896,797.28707)"
     id="g10"><g
       id="g16" /><g
       id="g18"><g
         clip-path="url(#clipPath24)"
         id="g20"><path
           id="path26"
           style="fill:#202148;fill-opacity:1;fill-rule:nonzero;stroke:none"
           d="m 359.5672,586.3604 c 2.124,0 3.846,1.51 3.846,3.373 0,1.863 -1.722,3.373 -3.846,3.373 -2.124,0 -3.846,-1.51 -3.846,-3.373 0,-1.863 1.722,-3.373 3.846,-3.373" /><g
           transform="translate(359.5672,586.3604)"
           id="g28"><path
             id="path30"
             style="fill:none;stroke:#202148;stroke-width:2.05800009;stroke-linecap:butt;stroke-linejoin:miter;stroke-miterlimit:4;stroke-dasharray:none;stroke-opacity:1"
             d="M 0,0 C 2.124,0 3.846,1.51 3.846,3.373 3.846,5.236 2.124,6.746 0,6.746 -2.124,6.746 -3.846,5.236 -3.846,3.373 -3.846,1.51 -2.124,0 0,0 Z" /></g><path
           id="path32"
           style="fill:#202148;fill-opacity:1;fill-rule:nonzero;stroke:none"
           d="m 333.2919,551.0842 c 1.062,0 1.923,0.755 1.923,1.687 0,0.931 -0.861,1.686 -1.923,1.686 -1.062,0 -1.923,-0.755 -1.923,-1.686 0,-0.932 0.861,-1.687 1.923,-1.687" /><g
           transform="translate(333.2919,551.0842)"
           id="g34"><path
             id="path36"
             style="fill:none;stroke:#202148;stroke-width:2.05800009;stroke-linecap:butt;stroke-linejoin:miter;stroke-miterlimit:4;stroke-dasharray:none;stroke-opacity:1"
             d="M 0,0 C 1.062,0 1.923,0.755 1.923,1.687 1.923,2.618 1.062,3.373 0,3.373 -1.062,3.373 -1.923,2.618 -1.923,1.687 -1.923,0.755 -1.062,0 0,0 Z" /></g><path
           id="path38"
           style="fill:#202148;fill-opacity:1;fill-rule:nonzero;stroke:none"
           d="m 360.3365,533.7351 c 2.549,0 4.616,1.812 4.616,4.048 0,2.235 -2.067,4.048 -4.616,4.048 -2.549,0 -4.616,-1.813 -4.616,-4.048 0,-2.236 2.067,-4.048 4.616,-4.048" /><g
           transform="translate(360.3365,533.7351)"
           id="g40"><path
             id="path42"
             style="fill:none;stroke:#202148;stroke-width:2.05800009;stroke-linecap:butt;stroke-linejoin:miter;stroke-miterlimit:4;stroke-dasharray:none;stroke-opacity:1"
             d="M 0,0 C 2.549,0 4.616,1.812 4.616,4.048 4.616,6.283 2.549,8.096 0,8.096 -2.549,8.096 -4.616,6.283 -4.616,4.048 -4.616,1.812 -2.549,0 0,0 Z" /></g><path
           id="path44"
           style="fill:#005d89;fill-opacity:1;fill-rule:nonzero;stroke:none"
           d="m 371.8991,534.4097 c 2.124,0 3.846,1.51 3.846,3.373 0,1.863 -1.722,3.373 -3.846,3.373 -2.124,0 -3.846,-1.51 -3.846,-3.373 0,-1.863 1.722,-3.373 3.846,-3.373" /><path
           id="path46"
           style="fill:#202148;fill-opacity:1;fill-rule:nonzero;stroke:none"
           d="m 360.3642,550.4683 c 1.636,0 2.962,1.163 2.962,2.597 0,1.435 -1.326,2.598 -2.962,2.598 -1.636,0 -2.962,-1.163 -2.962,-2.598 0,-1.434 1.326,-2.597 2.962,-2.597" /><g
           transform="translate(360.3642,550.4683)"
           id="g48"><path
             id="path50"
             style="fill:none;stroke:#202148;stroke-width:2.05800009;stroke-linecap:butt;stroke-linejoin:miter;stroke-miterlimit:4;stroke-dasharray:none;stroke-opacity:1"
             d="M 0,0 C 1.636,0 2.962,1.163 2.962,2.597 2.962,4.032 1.636,5.195 0,5.195 -1.636,5.195 -2.962,4.032 -2.962,2.597 -2.962,1.163 -1.636,0 0,0 Z" /></g><path
           id="path52"
           style="fill:#202148;fill-opacity:1;fill-rule:nonzero;stroke:none"
           d="m 371.8991,550.2408 c 2.013,0 3.645,1.431 3.645,3.197 0,1.765 -1.632,3.197 -3.645,3.197 -2.013,0 -3.645,-1.432 -3.645,-3.197 0,-1.766 1.632,-3.197 3.645,-3.197" /><g
           transform="translate(371.8991,550.2408)"
           id="g54"><path
             id="path56"
             style="fill:none;stroke:#202148;stroke-width:2.05800009;stroke-linecap:butt;stroke-linejoin:miter;stroke-miterlimit:4;stroke-dasharray:none;stroke-opacity:1"
             d="M 0,0 C 2.013,0 3.645,1.431 3.645,3.197 3.645,4.962 2.013,6.394 0,6.394 -2.013,6.394 -3.645,4.962 -3.645,3.197 -3.645,1.431 -2.013,0 0,0 Z" /></g><path
           id="path58"
           style="fill:#202148;fill-opacity:1;fill-rule:nonzero;stroke:none"
           d="m 400.056,576.5687 c 2.124,0 3.846,1.51 3.846,3.373 0,1.863 -1.722,3.373 -3.846,3.373 -2.124,0 -3.846,-1.51 -3.846,-3.373 0,-1.863 1.722,-3.373 3.846,-3.373" /><g
           transform="translate(400.056,576.5687)"
           id="g60"><path
             id="path62"
             style="fill:none;stroke:#202148;stroke-width:2.05800009;stroke-linecap:butt;stroke-linejoin:miter;stroke-miterlimit:4;stroke-dasharray:none;stroke-opacity:1"
             d="M 0,0 C 2.124,0 3.846,1.51 3.846,3.373 3.846,5.236 2.124,6.746 0,6.746 -2.124,6.746 -3.846,5.236 -3.846,3.373 -3.846,1.51 -2.124,0 0,0 Z" /></g><path
           id="path64"
           style="fill:#202148;fill-opacity:1;fill-rule:nonzero;stroke:none"
           d="m 372.3107,498.0051 c 1.487,0 2.692,1.057 2.692,2.361 0,1.304 -1.205,2.361 -2.692,2.361 -1.487,0 -2.692,-1.057 -2.692,-2.361 0,-1.304 1.205,-2.361 2.692,-2.361" /><g
           transform="translate(372.3107,498.0051)"
           id="g66"><path
             id="path68"
             style="fill:none;stroke:#202148;stroke-width:2.05800009;stroke-linecap:butt;stroke-linejoin:miter;stroke-miterlimit:4;stroke-dasharray:none;stroke-opacity:1"
             d="M 0,0 C 1.487,0 2.692,1.057 2.692,2.361 2.692,3.665 1.487,4.722 0,4.722 -1.487,4.722 -2.692,3.665 -2.692,2.361 -2.692,1.057 -1.487,0 0,0 Z" /></g><path
           id="path70"
           style="fill:#202148;fill-opacity:1;fill-rule:nonzero;stroke:none"
           d="m 372.1606,516.2424 c 2.124,0 3.846,1.51 3.846,3.373 0,1.863 -1.722,3.373 -3.846,3.373 -2.124,0 -3.846,-1.51 -3.846,-3.373 0,-1.863 1.722,-3.373 3.846,-3.373" /><g
           transform="translate(372.1606,516.2424)"
           id="g72"><path
             id="path74"
             style="fill:none;stroke:#202148;stroke-width:2.05800009;stroke-linecap:butt;stroke-linejoin:miter;stroke-miterlimit:4;stroke-dasharray:none;stroke-opacity:1"
             d="M 0,0 C 2.124,0 3.846,1.51 3.846,3.373 3.846,5.236 2.124,6.746 0,6.746 -2.124,6.746 -3.846,5.236 -3.846,3.373 -3.846,1.51 -2.124,0 0,0 Z" /></g><path
           id="path76"
           style="fill:#202148;fill-opacity:1;fill-rule:nonzero;stroke:none"
           d="m 304.2274,527.3588 c 1.062,0 1.923,0.755 1.923,1.687 0,0.931 -0.861,1.686 -1.923,1.686 -1.062,0 -1.923,-0.755 -1.923,-1.686 0,-0.932 0.861,-1.687 1.923,-1.687" /><g
           transform="translate(304.2274,527.3588)"
           id="g78"><path
             id="path80"
             style="fill:none;stroke:#202148;stroke-width:2.05800009;stroke-linecap:butt;stroke-linejoin:miter;stroke-miterlimit:4;stroke-dasharray:none;stroke-opacity:1"
             d="M 0,0 C 1.062,0 1.923,0.755 1.923,1.687 1.923,2.618 1.062,3.373 0,3.373 -1.062,3.373 -1.923,2.618 -1.923,1.687 -1.923,0.755 -1.062,0 0,0 Z" /></g><path
           id="path82"
           style="fill:#202148;fill-opacity:1;fill-rule:nonzero;stroke:none"
           d="m 387.6397,533.0604 c 2.549,0 4.616,1.812 4.616,4.048 0,2.235 -2.067,4.048 -4.616,4.048 -2.549,0 -4.616,-1.813 -4.616,-4.048 0,-2.236 2.067,-4.048 4.616,-4.048" /><g
           transform="translate(387.6397,533.0604)"
           id="g84"><path
             id="path86"
             style="fill:none;stroke:#202148;stroke-width:2.05800009;stroke-linecap:butt;stroke-linejoin:miter;stroke-miterlimit:4;stroke-dasharray:none;stroke-opacity:1"
             d="M 0,0 C 2.549,0 4.616,1.812 4.616,4.048 4.616,6.283 2.549,8.096 0,8.096 -2.549,8.096 -4.616,6.283 -4.616,4.048 -4.616,1.812 -2.549,0 0,0 Z" /></g><path
           id="path88"
           style="fill:#005d89;fill-opacity:1;fill-rule:nonzero;stroke:none"
           d="m 376.007,508.1502 c 1.062,0 1.923,0.755 1.923,1.687 0,0.931 -0.861,1.686 -1.923,1.686 -1.062,0 -1.923,-0.755 -1.923,-1.686 0,-0.932 0.861,-1.687 1.923,-1.687" /><path
           id="path90"
           style="fill:#005d89;fill-opacity:1;fill-rule:nonzero;stroke:none"
           d="m 304.2274,537.1082 c 2.549,0 4.616,1.812 4.616,4.048 0,2.235 -2.067,4.048 -4.616,4.048 -2.549,0 -4.616,-1.813 -4.616,-4.048 0,-2.236 2.067,-4.048 4.616,-4.048" /><path
           id="path92"
           style="fill:#202148;fill-opacity:1;fill-rule:nonzero;stroke:none"
           d="m 360.3642,569.4599 c 1.062,0 1.923,0.755 1.923,1.687 0,0.931 -0.861,1.686 -1.923,1.686 -1.062,0 -1.923,-0.755 -1.923,-1.686 0,-0.932 0.861,-1.687 1.923,-1.687" /><g
           transform="translate(360.3642,569.4599)"
           id="g94"><path
             id="path96"
             style="fill:none;stroke:#202148;stroke-width:2.05800009;stroke-linecap:butt;stroke-linejoin:miter;stroke-miterlimit:4;stroke-dasharray:none;stroke-opacity:1"
             d="M 0,0 C 1.062,0 1.923,0.755 1.923,1.687 1.923,2.618 1.062,3.373 0,3.373 -1.062,3.373 -1.923,2.618 -1.923,1.687 -1.923,0.755 -1.062,0 0,0 Z" /></g><path
           id="path98"
           style="fill:#202148;fill-opacity:1;fill-rule:nonzero;stroke:none"
           d="m 344.8103,565.412 c 2.549,0 4.616,1.812 4.616,4.048 0,2.235 -2.067,4.048 -4.616,4.048 -2.549,0 -4.616,-1.813 -4.616,-4.048 0,-2.236 2.067,-4.048 4.616,-4.048" /><g
           transform="translate(344.8103,565.412)"
           id="g100"><path
             id="path102"
             style="fill:none;stroke:#202148;stroke-width:2.05800009;stroke-linecap:butt;stroke-linejoin:miter;stroke-miterlimit:4;stroke-dasharray:none;stroke-opacity:1"
             d="M 0,0 C 2.549,0 4.616,1.812 4.616,4.048 4.616,6.283 2.549,8.096 0,8.096 -2.549,8.096 -4.616,6.283 -4.616,4.048 -4.616,1.812 -2.549,0 0,0 Z" /></g><path
           id="path104"
           style="fill:#202148;fill-opacity:1;fill-rule:nonzero;stroke:none"
           d="m 381.9875,569.4599 c 1.636,0 2.962,1.163 2.962,2.597 0,1.435 -1.326,2.598 -2.962,2.598 -1.636,0 -2.962,-1.163 -2.962,-2.598 0,-1.434 1.326,-2.597 2.962,-2.597" /><g
           transform="translate(381.9875,569.4599)"
           id="g106"><path
             id="path108"
             style="fill:none;stroke:#202148;stroke-width:2.05800009;stroke-linecap:butt;stroke-linejoin:miter;stroke-miterlimit:4;stroke-dasharray:none;stroke-opacity:1"
             d="M 0,0 C 1.636,0 2.962,1.163 2.962,2.597 2.962,4.032 1.636,5.195 0,5.195 -1.636,5.195 -2.962,4.032 -2.962,2.597 -2.962,1.163 -1.636,0 0,0 Z" /></g><path
           id="path110"
           style="fill:#005d89;fill-opacity:1;fill-rule:nonzero;stroke:none"
           d="m 420.5054,511.5234 c 1.062,0 1.923,0.755 1.923,1.687 0,0.931 -0.861,1.686 -1.923,1.686 -1.062,0 -1.923,-0.755 -1.923,-1.686 0,-0.932 0.861,-1.687 1.923,-1.687" /><path
           id="path112"
           style="fill:#202148;fill-opacity:1;fill-rule:nonzero;stroke:none"
           d="m 410.3509,523.9856 c 1.062,0 1.923,0.755 1.923,1.687 0,0.931 -0.861,1.686 -1.923,1.686 -1.062,0 -1.923,-0.755 -1.923,-1.686 0,-0.932 0.861,-1.687 1.923,-1.687" /><g
           transform="translate(410.3509,523.9856)"
           id="g114"><path
             id="path116"
             style="fill:none;stroke:#202148;stroke-width:2.05800009;stroke-linecap:butt;stroke-linejoin:miter;stroke-miterlimit:4;stroke-dasharray:none;stroke-opacity:1"
             d="M 0,0 C 1.062,0 1.923,0.755 1.923,1.687 1.923,2.618 1.062,3.373 0,3.373 -1.062,3.373 -1.923,2.618 -1.923,1.687 -1.923,0.755 -1.062,0 0,0 Z" /></g><path
           id="path118"
           style="fill:#005d89;fill-opacity:1;fill-rule:nonzero;stroke:none"
           d="m 408.9662,494.0372 c 1.784,0 3.231,1.269 3.231,2.833 0,1.565 -1.447,2.834 -3.231,2.834 -1.784,0 -3.231,-1.269 -3.231,-2.834 0,-1.564 1.447,-2.833 3.231,-2.833" /><path
           id="path120"
           style="fill:#005d89;fill-opacity:1;fill-rule:nonzero;stroke:none"
           d="m 341.9896,481.4791 c 2.124,0 3.846,1.51 3.846,3.373 0,1.863 -1.722,3.373 -3.846,3.373 -2.124,0 -3.846,-1.51 -3.846,-3.373 0,-1.863 1.722,-3.373 3.846,-3.373" /><path
           id="path122"
           style="fill:#005d89;fill-opacity:1;fill-rule:nonzero;stroke:none"
           d="m 322.042,573.0604 c 0.85,0 1.539,0.604 1.539,1.349 0,0.745 -0.689,1.35 -1.539,1.35 -0.85,0 -1.539,-0.605 -1.539,-1.35 0,-0.745 0.689,-1.349 1.539,-1.349" /><path
           id="path124"
           style="fill:#202148;fill-opacity:1;fill-rule:nonzero;stroke:none"
           d="m 320.5034,496.2408 c 1.062,0 1.923,0.755 1.923,1.687 0,0.931 -0.861,1.686 -1.923,1.686 -1.062,0 -1.923,-0.755 -1.923,-1.686 0,-0.932 0.861,-1.687 1.923,-1.687" /><g
           transform="translate(320.5034,496.2408)"
           id="g126"><path
             id="path128"
             style="fill:none;stroke:#202148;stroke-width:2.05800009;stroke-linecap:butt;stroke-linejoin:miter;stroke-miterlimit:4;stroke-dasharray:none;stroke-opacity:1"
             d="M 0,0 C 1.062,0 1.923,0.755 1.923,1.687 1.923,2.618 1.062,3.373 0,3.373 -1.062,3.373 -1.923,2.618 -1.923,1.687 -1.923,0.755 -1.062,0 0,0 Z" /></g><path
           id="path130"
           style="fill:#202148;fill-opacity:1;fill-rule:nonzero;stroke:none"
           d="m 360.1816,479.8289 c 0.85,0 1.539,0.604 1.539,1.349 0,0.745 -0.689,1.35 -1.539,1.35 -0.85,0 -1.539,-0.605 -1.539,-1.35 0,-0.745 0.689,-1.349 1.539,-1.349" /><g
           transform="translate(360.1816,479.8289)"
           id="g132"><path
             id="path134"
             style="fill:none;stroke:#202148;stroke-width:2.05800009;stroke-linecap:butt;stroke-linejoin:miter;stroke-miterlimit:4;stroke-dasharray:none;stroke-opacity:1"
             d="M 0,0 C 0.85,0 1.539,0.604 1.539,1.349 1.539,2.094 0.85,2.699 0,2.699 -0.85,2.699 -1.539,2.094 -1.539,1.349 -1.539,0.604 -0.85,0 0,0 Z" /></g><text
           id="text138"
           style="font-variant:normal;font-weight:bold;font-size:37.55979919px;font-family:Calibri;-inkscape-font-specification:Calibri-Bold;writing-mode:lr-tb;fill:#002945;fill-opacity:1;fill-rule:nonzero;stroke:none"
           transform="matrix(1,0,0,-1,172.8471,501.8388)"><tspan
             id="tspan136"
             y="0"
             x="0 25.401693 45.282093">OPT</tspan></text>
<text
           id="text142"
           style="font-variant:normal;font-weight:normal;font-size:37.55979919px;font-family:Calibri;-inkscape-font-specification:Calibri;writing-mode:lr-tb;fill:#005d89;fill-opacity:1;fill-rule:nonzero;stroke:none"
           transform="matrix(1,0,0,-1,236.7363,501.8388)"><tspan
             id="tspan140"
             y="0"
             x="0">4</tspan></text>
<text
           id="text146"
           style="font-variant:normal;font-weight:300;font-size:37.55979919px;font-family:Calibri;-inkscape-font-specification:Calibri-Light;writing-mode:lr-tb;fill:#706f6f;fill-opacity:1;fill-rule:nonzero;stroke:none"
           transform="matrix(1,0,0,-1,255.7791,501.8388)"><tspan
             id="tspan144"
             y="0"
             x="0 17.014589 48.752621 69.898788 89.520027">SMART</tspan></text>
<path
           id="path148"
           style="fill:#202148;fill-opacity:1;fill-rule:nonzero;stroke:none"
           d="m 462.8089,168.0808 c 1.062,0 1.923,0.755 1.923,1.687 0,0.931 -0.861,1.686 -1.923,1.686 -1.062,0 -1.923,-0.755 -1.923,-1.686 0,-0.932 0.861,-1.687 1.923,-1.687" /><g
           transform="translate(462.8089,168.0808)"
           id="g150"><path
             id="path152"
             style="fill:none;stroke:#202148;stroke-width:1.02900004;stroke-linecap:butt;stroke-linejoin:miter;stroke-miterlimit:4;stroke-dasharray:none;stroke-opacity:1"
             d="M 0,0 C 1.062,0 1.923,0.755 1.923,1.687 1.923,2.618 1.062,3.373 0,3.373 -1.062,3.373 -1.923,2.618 -1.923,1.687 -1.923,0.755 -1.062,0 0,0 Z" /></g><path
           id="path154"
           style="fill:#202148;fill-opacity:1;fill-rule:nonzero;stroke:none"
           d="m 449.6712,150.4427 c 0.531,0 0.962,0.378 0.962,0.843 0,0.466 -0.431,0.844 -0.962,0.844 -0.531,0 -0.962,-0.378 -0.962,-0.844 0,-0.465 0.431,-0.843 0.962,-0.843" /><g
           transform="translate(449.6712,150.4427)"
           id="g156"><path
             id="path158"
             style="fill:none;stroke:#202148;stroke-width:1.02900004;stroke-linecap:butt;stroke-linejoin:miter;stroke-miterlimit:4;stroke-dasharray:none;stroke-opacity:1"
             d="M 0,0 C 0.531,0 0.962,0.378 0.962,0.843 0.962,1.309 0.531,1.687 0,1.687 -0.531,1.687 -0.962,1.309 -0.962,0.843 -0.962,0.378 -0.531,0 0,0 Z" /></g><path
           id="path160"
           style="fill:#202148;fill-opacity:1;fill-rule:nonzero;stroke:none"
           d="m 463.1935,141.7682 c 1.275,0 2.308,0.906 2.308,2.024 0,1.118 -1.033,2.024 -2.308,2.024 -1.275,0 -2.308,-0.906 -2.308,-2.024 0,-1.118 1.033,-2.024 2.308,-2.024" /><g
           transform="translate(463.1935,141.7682)"
           id="g162"><path
             id="path164"
             style="fill:none;stroke:#202148;stroke-width:1.02900004;stroke-linecap:butt;stroke-linejoin:miter;stroke-miterlimit:4;stroke-dasharray:none;stroke-opacity:1"
             d="M 0,0 C 1.275,0 2.308,0.906 2.308,2.024 2.308,3.142 1.275,4.048 0,4.048 -1.275,4.048 -2.308,3.142 -2.308,2.024 -2.308,0.906 -1.275,0 0,0 Z" /></g><path
           id="path166"
           style="fill:#005d89;fill-opacity:1;fill-rule:nonzero;stroke:none"
           d="m 468.9748,142.1055 c 1.062,0 1.923,0.755 1.923,1.687 0,0.931 -0.861,1.686 -1.923,1.686 -1.062,0 -1.923,-0.755 -1.923,-1.686 0,-0.932 0.861,-1.687 1.923,-1.687" /><path
           id="path168"
           style="fill:#202148;fill-opacity:1;fill-rule:nonzero;stroke:none"
           d="m 463.2074,150.1348 c 0.818,0 1.481,0.581 1.481,1.299 0,0.717 -0.663,1.298 -1.481,1.298 -0.818,0 -1.481,-0.581 -1.481,-1.298 0,-0.718 0.663,-1.299 1.481,-1.299" /><g
           transform="translate(463.2074,150.1348)"
           id="g170"><path
             id="path172"
             style="fill:none;stroke:#202148;stroke-width:1.02900004;stroke-linecap:butt;stroke-linejoin:miter;stroke-miterlimit:4;stroke-dasharray:none;stroke-opacity:1"
             d="M 0,0 C 0.818,0 1.481,0.581 1.481,1.299 1.481,2.016 0.818,2.597 0,2.597 -0.818,2.597 -1.481,2.016 -1.481,1.299 -1.481,0.581 -0.818,0 0,0 Z" /></g><path
           id="path174"
           style="fill:#202148;fill-opacity:1;fill-rule:nonzero;stroke:none"
           d="m 468.9748,150.0211 c 1.007,0 1.823,0.716 1.823,1.598 0,0.883 -0.816,1.599 -1.823,1.599 -1.007,0 -1.823,-0.716 -1.823,-1.599 0,-0.882 0.816,-1.598 1.823,-1.598" /><g
           transform="translate(468.9748,150.0211)"
           id="g176"><path
             id="path178"
             style="fill:none;stroke:#202148;stroke-width:1.02900004;stroke-linecap:butt;stroke-linejoin:miter;stroke-miterlimit:4;stroke-dasharray:none;stroke-opacity:1"
             d="M 0,0 C 1.007,0 1.823,0.716 1.823,1.598 1.823,2.481 1.007,3.197 0,3.197 -1.007,3.197 -1.823,2.481 -1.823,1.598 -1.823,0.716 -1.007,0 0,0 Z" /></g><path
           id="path180"
           style="fill:#202148;fill-opacity:1;fill-rule:nonzero;stroke:none"
           d="m 483.0533,163.185 c 1.062,0 1.923,0.755 1.923,1.687 0,0.931 -0.861,1.686 -1.923,1.686 -1.062,0 -1.923,-0.755 -1.923,-1.686 0,-0.932 0.861,-1.687 1.923,-1.687" /><g
           transform="translate(483.0533,163.185)"
           id="g182"><path
             id="path184"
             style="fill:none;stroke:#202148;stroke-width:1.02900004;stroke-linecap:butt;stroke-linejoin:miter;stroke-miterlimit:4;stroke-dasharray:none;stroke-opacity:1"
             d="M 0,0 C 1.062,0 1.923,0.755 1.923,1.687 1.923,2.618 1.062,3.373 0,3.373 -1.062,3.373 -1.923,2.618 -1.923,1.687 -1.923,0.755 -1.062,0 0,0 Z" /></g><path
           id="path186"
           style="fill:#202148;fill-opacity:1;fill-rule:nonzero;stroke:none"
           d="m 469.1806,123.9032 c 0.743,0 1.346,0.529 1.346,1.181 0,0.652 -0.603,1.18 -1.346,1.18 -0.743,0 -1.346,-0.528 -1.346,-1.18 0,-0.652 0.603,-1.181 1.346,-1.181" /><g
           transform="translate(469.1806,123.9032)"
           id="g188"><path
             id="path190"
             style="fill:none;stroke:#202148;stroke-width:1.02900004;stroke-linecap:butt;stroke-linejoin:miter;stroke-miterlimit:4;stroke-dasharray:none;stroke-opacity:1"
             d="m 0,0 c 0.743,0 1.346,0.529 1.346,1.181 0,0.652 -0.603,1.18 -1.346,1.18 -0.743,0 -1.346,-0.528 -1.346,-1.18 C -1.346,0.529 -0.743,0 0,0 Z" /></g><path
           id="path192"
           style="fill:#202148;fill-opacity:1;fill-rule:nonzero;stroke:none"
           d="m 469.1056,133.0218 c 1.062,0 1.923,0.755 1.923,1.687 0,0.931 -0.861,1.686 -1.923,1.686 -1.062,0 -1.923,-0.755 -1.923,-1.686 0,-0.932 0.861,-1.687 1.923,-1.687" /><g
           transform="translate(469.1056,133.0218)"
           id="g194"><path
             id="path196"
             style="fill:none;stroke:#202148;stroke-width:1.02900004;stroke-linecap:butt;stroke-linejoin:miter;stroke-miterlimit:4;stroke-dasharray:none;stroke-opacity:1"
             d="M 0,0 C 1.062,0 1.923,0.755 1.923,1.687 1.923,2.618 1.062,3.373 0,3.373 -1.062,3.373 -1.923,2.618 -1.923,1.687 -1.923,0.755 -1.062,0 0,0 Z" /></g><path
           id="path198"
           style="fill:#202148;fill-opacity:1;fill-rule:nonzero;stroke:none"
           d="m 435.139,138.58 c 0.531,0 0.962,0.378 0.962,0.843 0,0.466 -0.431,0.844 -0.962,0.844 -0.531,0 -0.962,-0.378 -0.962,-0.844 0,-0.465 0.431,-0.843 0.962,-0.843" /><g
           transform="translate(435.139,138.58)"
           id="g200"><path
             id="path202"
             style="fill:none;stroke:#202148;stroke-width:1.02900004;stroke-linecap:butt;stroke-linejoin:miter;stroke-miterlimit:4;stroke-dasharray:none;stroke-opacity:1"
             d="M 0,0 C 0.531,0 0.962,0.378 0.962,0.843 0.962,1.309 0.531,1.687 0,1.687 -0.531,1.687 -0.962,1.309 -0.962,0.843 -0.962,0.378 -0.531,0 0,0 Z" /></g><path
           id="path204"
           style="fill:#202148;fill-opacity:1;fill-rule:nonzero;stroke:none"
           d="m 476.8452,141.4309 c 1.275,0 2.308,0.906 2.308,2.024 0,1.118 -1.033,2.024 -2.308,2.024 -1.275,0 -2.308,-0.906 -2.308,-2.024 0,-1.118 1.033,-2.024 2.308,-2.024" /><g
           transform="translate(476.8452,141.4309)"
           id="g206"><path
             id="path208"
             style="fill:none;stroke:#202148;stroke-width:1.02900004;stroke-linecap:butt;stroke-linejoin:miter;stroke-miterlimit:4;stroke-dasharray:none;stroke-opacity:1"
             d="M 0,0 C 1.275,0 2.308,0.906 2.308,2.024 2.308,3.142 1.275,4.048 0,4.048 -1.275,4.048 -2.308,3.142 -2.308,2.024 -2.308,0.906 -1.275,0 0,0 Z" /></g><path
           id="path210"
           style="fill:#005d89;fill-opacity:1;fill-rule:nonzero;stroke:none"
           d="m 471.0287,128.9758 c 0.531,0 0.962,0.378 0.962,0.843 0,0.466 -0.431,0.844 -0.962,0.844 -0.531,0 -0.962,-0.378 -0.962,-0.844 0,-0.465 0.431,-0.843 0.962,-0.843" /><path
           id="path212"
           style="fill:#005d89;fill-opacity:1;fill-rule:nonzero;stroke:none"
           d="m 435.139,143.4548 c 1.275,0 2.308,0.906 2.308,2.024 0,1.118 -1.033,2.024 -2.308,2.024 -1.275,0 -2.308,-0.906 -2.308,-2.024 0,-1.118 1.033,-2.024 2.308,-2.024" /><path
           id="path214"
           style="fill:#202148;fill-opacity:1;fill-rule:nonzero;stroke:none"
           d="m 463.2074,159.6306 c 0.531,0 0.962,0.378 0.962,0.843 0,0.466 -0.431,0.844 -0.962,0.844 -0.531,0 -0.962,-0.378 -0.962,-0.844 0,-0.465 0.431,-0.843 0.962,-0.843" /><g
           transform="translate(463.2074,159.6306)"
           id="g216"><path
             id="path218"
             style="fill:none;stroke:#202148;stroke-width:1.02900004;stroke-linecap:butt;stroke-linejoin:miter;stroke-miterlimit:4;stroke-dasharray:none;stroke-opacity:1"
             d="M 0,0 C 0.531,0 0.962,0.378 0.962,0.843 0.962,1.309 0.531,1.687 0,1.687 -0.531,1.687 -0.962,1.309 -0.962,0.843 -0.962,0.378 -0.531,0 0,0 Z" /></g><path
           id="path220"
           style="fill:#202148;fill-opacity:1;fill-rule:nonzero;stroke:none"
           d="m 455.4304,157.6067 c 1.275,0 2.308,0.906 2.308,2.024 0,1.118 -1.033,2.024 -2.308,2.024 -1.275,0 -2.308,-0.906 -2.308,-2.024 0,-1.118 1.033,-2.024 2.308,-2.024" /><g
           transform="translate(455.4304,157.6067)"
           id="g222"><path
             id="path224"
             style="fill:none;stroke:#202148;stroke-width:1.02900004;stroke-linecap:butt;stroke-linejoin:miter;stroke-miterlimit:4;stroke-dasharray:none;stroke-opacity:1"
             d="M 0,0 C 1.275,0 2.308,0.906 2.308,2.024 2.308,3.142 1.275,4.048 0,4.048 -1.275,4.048 -2.308,3.142 -2.308,2.024 -2.308,0.906 -1.275,0 0,0 Z" /></g><path
           id="path226"
           style="fill:#202148;fill-opacity:1;fill-rule:nonzero;stroke:none"
           d="m 474.019,159.6306 c 0.818,0 1.481,0.581 1.481,1.299 0,0.717 -0.663,1.298 -1.481,1.298 -0.818,0 -1.481,-0.581 -1.481,-1.298 0,-0.718 0.663,-1.299 1.481,-1.299" /><g
           transform="translate(474.019,159.6306)"
           id="g228"><path
             id="path230"
             style="fill:none;stroke:#202148;stroke-width:1.02900004;stroke-linecap:butt;stroke-linejoin:miter;stroke-miterlimit:4;stroke-dasharray:none;stroke-opacity:1"
             d="M 0,0 C 0.818,0 1.481,0.581 1.481,1.299 1.481,2.016 0.818,2.597 0,2.597 -0.818,2.597 -1.481,2.016 -1.481,1.299 -1.481,0.581 -0.818,0 0,0 Z" /></g><path
           id="path232"
           style="fill:#005d89;fill-opacity:1;fill-rule:nonzero;stroke:none"
           d="m 493.278,130.6623 c 0.531,0 0.962,0.378 0.962,0.843 0,0.466 -0.431,0.844 -0.962,0.844 -0.531,0 -0.962,-0.378 -0.962,-0.844 0,-0.465 0.431,-0.843 0.962,-0.843" /><path
           id="path234"
           style="fill:#202148;fill-opacity:1;fill-rule:nonzero;stroke:none"
           d="m 488.2007,136.8934 c 0.531,0 0.962,0.378 0.962,0.843 0,0.466 -0.431,0.844 -0.962,0.844 -0.531,0 -0.962,-0.378 -0.962,-0.844 0,-0.465 0.431,-0.843 0.962,-0.843" /><g
           transform="translate(488.2007,136.8934)"
           id="g236"><path
             id="path238"
             style="fill:none;stroke:#202148;stroke-width:1.02900004;stroke-linecap:butt;stroke-linejoin:miter;stroke-miterlimit:4;stroke-dasharray:none;stroke-opacity:1"
             d="M 0,0 C 0.531,0 0.962,0.378 0.962,0.843 0.962,1.309 0.531,1.687 0,1.687 -0.531,1.687 -0.962,1.309 -0.962,0.843 -0.962,0.378 -0.531,0 0,0 Z" /></g><path
           id="path240"
           style="fill:#005d89;fill-opacity:1;fill-rule:nonzero;stroke:none"
           d="m 487.5084,121.9193 c 0.892,0 1.615,0.634 1.615,1.417 0,0.782 -0.723,1.416 -1.615,1.416 -0.892,0 -1.615,-0.634 -1.615,-1.416 0,-0.783 0.723,-1.417 1.615,-1.417" /><path
           id="path242"
           style="fill:#005d89;fill-opacity:1;fill-rule:nonzero;stroke:none"
           d="m 454.0201,115.6402 c 1.062,0 1.923,0.755 1.923,1.687 0,0.931 -0.861,1.686 -1.923,1.686 -1.062,0 -1.923,-0.755 -1.923,-1.686 0,-0.932 0.861,-1.687 1.923,-1.687" /><path
           id="path244"
           style="fill:#005d89;fill-opacity:1;fill-rule:nonzero;stroke:none"
           d="m 444.0463,161.4308 c 0.425,0 0.769,0.302 0.769,0.675 0,0.372 -0.344,0.674 -0.769,0.674 -0.425,0 -0.769,-0.302 -0.769,-0.674 0,-0.373 0.344,-0.675 0.769,-0.675" /><path
           id="path246"
           style="fill:#202148;fill-opacity:1;fill-rule:nonzero;stroke:none"
           d="m 443.277,123.0211 c 0.531,0 0.962,0.378 0.962,0.843 0,0.466 -0.431,0.844 -0.962,0.844 -0.531,0 -0.962,-0.378 -0.962,-0.844 0,-0.465 0.431,-0.843 0.962,-0.843" /><g
           transform="translate(443.277,123.0211)"
           id="g248"><path
             id="path250"
             style="fill:none;stroke:#202148;stroke-width:1.02900004;stroke-linecap:butt;stroke-linejoin:miter;stroke-miterlimit:4;stroke-dasharray:none;stroke-opacity:1"
             d="M 0,0 C 0.531,0 0.962,0.378 0.962,0.843 0.962,1.309 0.531,1.687 0,1.687 -0.531,1.687 -0.962,1.309 -0.962,0.843 -0.962,0.378 -0.531,0 0,0 Z" /></g><path
           id="path252"
           style="fill:#202148;fill-opacity:1;fill-rule:nonzero;stroke:none"
           d="m 463.1161,114.8151 c 0.425,0 0.769,0.302 0.769,0.675 0,0.372 -0.344,0.674 -0.769,0.674 -0.425,0 -0.769,-0.302 -0.769,-0.674 0,-0.373 0.344,-0.675 0.769,-0.675" /><g
           transform="translate(463.1161,114.8151)"
           id="g254"><path
             id="path256"
             style="fill:none;stroke:#202148;stroke-width:1.02900004;stroke-linecap:butt;stroke-linejoin:miter;stroke-miterlimit:4;stroke-dasharray:none;stroke-opacity:1"
             d="M 0,0 C 0.425,0 0.769,0.302 0.769,0.675 0.769,1.047 0.425,1.349 0,1.349 -0.425,1.349 -0.769,1.047 -0.769,0.675 -0.769,0.302 -0.425,0 0,0 Z" /></g><text
           id="text260"
           style="font-variant:normal;font-weight:bold;font-size:18.7798996px;font-family:Calibri;-inkscape-font-specification:Calibri-Bold;writing-mode:lr-tb;fill:#002945;fill-opacity:1;fill-rule:nonzero;stroke:none"
           transform="matrix(1,0,0,-1,369.4488,125.8201)"><tspan
             id="tspan258"
             y="0"
             x="0 12.700847 22.641047">OPT</tspan></text>
<text
           id="text264"
           style="font-variant:normal;font-weight:normal;font-size:18.7798996px;font-family:Calibri;-inkscape-font-specification:Calibri;writing-mode:lr-tb;fill:#005d89;fill-opacity:1;fill-rule:nonzero;stroke:none"
           transform="matrix(1,0,0,-1,401.3934,125.8201)"><tspan
             id="tspan262"
             y="0"
             x="0">4</tspan></text>
<text
           id="text268"
           style="font-variant:normal;font-weight:300;font-size:18.7798996px;font-family:Calibri;-inkscape-font-specification:Calibri-Light;writing-mode:lr-tb;fill:#706f6f;fill-opacity:1;fill-rule:nonzero;stroke:none"
           transform="matrix(1,0,0,-1,410.9148,125.8201)"><tspan
             id="tspan266"
             y="0"
             x="0 8.5072947 24.37631 34.949394 44.760014">SMART</tspan></text>
</g></g></g></svg>